<svg width="512" height="512" viewBox="0 0 512 512" fill="none" xmlns="http://www.w3.org/2000/svg">
<path d="M466.652 1H45.3478C20.8552 1 1 21.4479 1 46.6716V465.328C1 490.552 20.8552 511 45.3478 511H466.652C491.145 511 511 490.552 511 465.328V46.6716C511 21.4479 491.145 1 466.652 1Z" fill="#1A1A1A" fill-opacity="0.775801"/>
<path d="M90 126.279L151.924 251L256.391 253.362L304.606 383.279L419 296.825" stroke="white" stroke-opacity="0.31" stroke-width="13"/>
<g filter="url(#filter0_d_3_44)">
<path d="M89.6284 150.257C102.678 150.257 113.257 139.678 113.257 126.628C113.257 113.579 102.678 103 89.6284 103C76.5788 103 66 113.579 66 126.628C66 139.678 76.5788 150.257 89.6284 150.257Z" fill="white" fill-opacity="0.97955"/>
<path d="M152.007 273.125C165.057 273.125 175.636 262.546 175.636 249.496C175.636 236.447 165.057 225.868 152.007 225.868C138.958 225.868 128.379 236.447 128.379 249.496C128.379 262.546 138.958 273.125 152.007 273.125Z" fill="white" fill-opacity="0.97955"/>
<path d="M419.009 323.217C433.363 323.217 445 311.58 445 297.226C445 282.871 433.363 271.234 419.009 271.234C404.654 271.234 393.017 282.871 393.017 297.226C393.017 311.58 404.654 323.217 419.009 323.217Z" fill="white" fill-opacity="0.97955"/>
<path d="M304.647 408.279C319.002 408.279 330.638 396.643 330.638 382.288C330.638 367.933 319.002 356.297 304.647 356.297C290.293 356.297 278.656 367.933 278.656 382.288C278.656 396.643 290.293 408.279 304.647 408.279Z" fill="white" fill-opacity="0.97955"/>
<path d="M255.5 278.796C269.855 278.796 281.491 267.159 281.491 252.804C281.491 238.45 269.855 226.813 255.5 226.813C241.145 226.813 229.509 238.45 229.509 252.804C229.509 267.159 241.145 278.796 255.5 278.796Z" fill="white" fill-opacity="0.97955"/>
</g>
<defs>
<filter id="filter0_d_3_44" x="59" y="93" width="407" height="333.279" filterUnits="userSpaceOnUse" color-interpolation-filters="sRGB">
<feFlood flood-opacity="0" result="BackgroundImageFix"/>
<feColorMatrix in="SourceAlpha" type="matrix" values="0 0 0 0 0 0 0 0 0 0 0 0 0 0 0 0 0 0 127 0" result="hardAlpha"/>
<feOffset dx="7" dy="4"/>
<feGaussianBlur stdDeviation="7"/>
<feComposite in2="hardAlpha" operator="out"/>
<feColorMatrix type="matrix" values="0 0 0 0 0 0 0 0 0 0 0 0 0 0 0 0 0 0 0.67 0"/>
<feBlend mode="normal" in2="BackgroundImageFix" result="effect1_dropShadow_3_44"/>
<feBlend mode="normal" in="SourceGraphic" in2="effect1_dropShadow_3_44" result="shape"/>
</filter>
</defs>
</svg>
